{
	"asset":{
		"generator":"Khronos glTF Blender I/O v3.6.27",
		"version":"2.0"
	},
	"scene":0,
	"scenes":[
		{
			"name":"Scene",
			"nodes":[
				0,
				1
			]
		}
	],
	"nodes":[
		{
			"mesh":0,
			"name":"tea mug",
			"rotation":[
				0,
				-0.3077133893966675,
				0,
				0.9514791965484619
			],
			"translation":[
				0,
				1.1929947137832642,
				0
			]
		},
		{
			"mesh":1,
			"name":"Plane",
			"scale":[
				-967.8080444335938,
				-229.76905822753906,
				-1087.089599609375
			],
			"translation":[
				-1.0542664527893066,
				0.04861748218536377,
				0.1203317642211914
			]
		}
	],
	"materials":[
		{
			"doubleSided":true,
			"name":"teamug",
			"pbrMetallicRoughness":{}
		},
		{
			"doubleSided":true,
			"name":"Material.001",
			"pbrMetallicRoughness":{}
		}
	],
	"meshes":[
		{
			"name":"Cylinder",
			"primitives":[
				{
					"attributes":{
						"POSITION":0,
						"NORMAL":1,
						"TEXCOORD_0":2
					},
					"indices":3,
					"material":0
				}
			]
		},
		{
			"name":"Plane",
			"primitives":[
				{
					"attributes":{
						"POSITION":4,
						"NORMAL":5,
						"TEXCOORD_0":6
					},
					"indices":7,
					"material":1
				}
			]
		}
	],
	"accessors":[
		{
			"bufferView":0,
			"componentType":5126,
			"count":32239,
			"max":[
				0.9935953617095947,
				0.9736323356628418,
				1.5327030420303345
			],
			"min":[
				-0.9935952425003052,
				-1.0000004768371582,
				-0.9935953617095947
			],
			"type":"VEC3"
		},
		{
			"bufferView":1,
			"componentType":5126,
			"count":32239,
			"type":"VEC3"
		},
		{
			"bufferView":2,
			"componentType":5126,
			"count":32239,
			"type":"VEC2"
		},
		{
			"bufferView":3,
			"componentType":5123,
			"count":177984,
			"type":"SCALAR"
		},
		{
			"bufferView":4,
			"componentType":5126,
			"count":4,
			"max":[
				1,
				0,
				1
			],
			"min":[
				-1,
				0,
				-1
			],
			"type":"VEC3"
		},
		{
			"bufferView":5,
			"componentType":5126,
			"count":4,
			"type":"VEC3"
		},
		{
			"bufferView":6,
			"componentType":5126,
			"count":4,
			"type":"VEC2"
		},
		{
			"bufferView":7,
			"componentType":5123,
			"count":6,
			"type":"SCALAR"
		}
	],
	"bufferViews":[
		{
			"buffer":0,
			"byteLength":386868,
			"byteOffset":0,
			"target":34962
		},
		{
			"buffer":0,
			"byteLength":386868,
			"byteOffset":386868,
			"target":34962
		},
		{
			"buffer":0,
			"byteLength":257912,
			"byteOffset":773736,
			"target":34962
		},
		{
			"buffer":0,
			"byteLength":355968,
			"byteOffset":1031648,
			"target":34963
		},
		{
			"buffer":0,
			"byteLength":48,
			"byteOffset":1387616,
			"target":34962
		},
		{
			"buffer":0,
			"byteLength":48,
			"byteOffset":1387664,
			"target":34962
		},
		{
			"buffer":0,
			"byteLength":32,
			"byteOffset":1387712,
			"target":34962
		},
		{
			"buffer":0,
			"byteLength":12,
			"byteOffset":1387744,
			"target":34963
		}
	],
	"buffers":[
		{
			"byteLength":1387756,
			"uri":"data:application/octet-stream;base64,"
		}
	]
}
